<svg width="32" height="32" viewBox="0 0 32 32" fill="none" xmlns="http://www.w3.org/2000/svg">
<g clip-path="url(#clip0_875_215)">
<path d="M22.6667 4H21.3333V10.6667H22.6667V4ZM20 6.66667H17.3333V5.33333H20V4H16V8H18.6667V9.33333H16V10.6667H20V6.66667ZM24 4V10.6667H25.3333V8H28V4H24ZM26.6667 6.66667H25.3333V5.33333H26.6667V6.66667ZM26.6667 20.6667C25 20.6667 23.4 20.4 21.9067 19.9067C21.44 19.76 20.92 19.8667 20.56 20.2267L17.6267 23.16C13.8533 21.24 10.76 18.16 8.84 14.3733L11.7733 11.4267C12.1333 11.08 12.24 10.56 12.0933 10.0933C11.6 8.6 11.3333 7 11.3333 5.33333C11.3333 4.6 10.7333 4 10 4H5.33333C4.6 4 4 4.6 4 5.33333C4 17.8533 14.1467 28 26.6667 28C27.4 28 28 27.4 28 26.6667V22C28 21.2667 27.4 20.6667 26.6667 20.6667Z" fill="black"/>
</g>
<defs>
<clipPath id="clip0_875_215">
<rect width="32" height="32" fill="white"/>
</clipPath>
</defs>
</svg>
